<svg xmlns="http://www.w3.org/2000/svg" xmlns:xlink="http://www.w3.org/1999/xlink" width="500" zoomAndPan="magnify" viewBox="0 0 375 374.999991" height="500" preserveAspectRatio="xMidYMid meet" version="1.0"><defs><clipPath id="0246ea6360"><path d="M 90 197.15625 L 285 197.15625 L 285 375 L 90 375 Z M 90 197.15625 " clip-rule="nonzero"/></clipPath></defs><path fill="#9aa0a6" d="M 187.5 275 C 170.207031 275 153.957031 271.71875 138.75 265.15625 C 123.542969 258.59375 110.3125 249.6875 99.0625 238.4375 C 87.8125 227.1875 78.90625 213.957031 72.34375 198.75 C 65.78125 183.542969 62.5 167.292969 62.5 150 C 62.5 132.707031 65.78125 116.457031 72.34375 101.25 C 78.90625 86.042969 87.8125 72.8125 99.0625 61.5625 C 110.3125 50.3125 123.542969 41.40625 138.75 34.84375 C 153.957031 28.28125 170.207031 25 187.5 25 C 204.792969 25 221.042969 28.28125 236.25 34.84375 C 251.457031 41.40625 264.6875 50.3125 275.9375 61.5625 C 287.1875 72.8125 296.09375 86.042969 302.65625 101.25 C 309.21875 116.457031 312.5 132.707031 312.5 150 C 312.5 167.292969 309.21875 183.542969 302.65625 198.75 C 296.09375 213.957031 287.1875 227.1875 275.9375 238.4375 C 264.6875 249.6875 251.457031 258.59375 236.25 265.15625 C 221.042969 271.71875 204.792969 275 187.5 275 Z M 187.5 250 C 215.417969 250 239.0625 240.3125 258.4375 220.9375 C 277.8125 201.5625 287.5 177.917969 287.5 150 C 287.5 148.542969 287.449219 147.03125 287.34375 145.46875 C 287.238281 143.90625 287.1875 142.605469 287.1875 141.5625 C 286.144531 147.605469 283.332031 152.605469 278.75 156.5625 C 274.167969 160.519531 268.75 162.5 262.5 162.5 L 237.5 162.5 C 230.625 162.5 224.738281 160.050781 219.84375 155.15625 C 214.949219 150.261719 212.5 144.375 212.5 137.5 L 212.5 125 L 162.5 125 L 162.5 100 C 162.5 93.125 164.949219 87.238281 169.84375 82.34375 C 174.738281 77.449219 180.625 75 187.5 75 L 200 75 C 200 70.207031 201.300781 65.988281 203.90625 62.34375 C 206.511719 58.699219 209.6875 55.730469 213.4375 53.4375 C 209.269531 52.394531 205.050781 51.5625 200.78125 50.9375 C 196.511719 50.3125 192.082031 50 187.5 50 C 159.582031 50 135.9375 59.6875 116.5625 79.0625 C 97.1875 98.4375 87.5 122.082031 87.5 150 L 150 150 C 163.75 150 175.519531 154.894531 185.3125 164.6875 C 195.105469 174.480469 200 186.25 200 200 L 200 212.5 L 162.5 212.5 L 162.5 246.875 C 166.667969 247.917969 170.78125 248.699219 174.84375 249.21875 C 178.90625 249.738281 183.125 250 187.5 250 Z M 187.5 250 " fill-opacity="1" fill-rule="nonzero"/><g clip-path="url(#0246ea6360)"><path fill="#ff5e22" d="M 268.832031 321.363281 C 259.914062 308.410156 255.367188 298.691406 254.152344 282.519531 C 253.246094 270.433594 258.324219 256.476562 258.324219 256.476562 C 252.027344 260.671875 251.960938 260.222656 247.800781 263.65625 C 226.167969 281.539062 220.515625 299.433594 219.851562 301.746094 C 219.808594 301.910156 219.78125 302.007812 219.78125 302.007812 L 219.851562 301.746094 C 219.851562 301.746094 236.761719 235.59375 189.691406 204.789062 C 185.785156 202.230469 176.773438 197.15625 176.773438 197.15625 C 176.773438 197.15625 200.144531 254.453125 158.300781 288.445312 C 150.0625 254.828125 106.582031 254.417969 106.582031 254.417969 C 106.582031 254.417969 109.921875 266.128906 110.460938 268.898438 C 117.507812 305.429688 95.90625 316.992188 91.519531 351.527344 C 92.023438 347.5625 91.824219 349.140625 91.519531 351.546875 C 91.515625 351.554688 91.515625 351.566406 91.515625 351.574219 C 91.515625 351.570312 91.515625 351.566406 91.515625 351.5625 C 91.515625 351.570312 91.515625 351.582031 91.515625 351.589844 C 88.089844 378.703125 101.007812 399.699219 120.859375 413.867188 C 121.789062 404.296875 125.710938 394.804688 131.164062 386.882812 C 137.332031 377.925781 140.480469 371.199219 141.316406 360.015625 C 141.941406 351.652344 138.429688 341.996094 138.429688 341.996094 C 142.78125 344.902344 142.835938 344.589844 145.707031 346.964844 C 157.867188 357.015625 162.730469 367.074219 164.371094 371.347656 C 164.425781 371.316406 164.480469 371.285156 164.542969 371.25 C 162.46875 361.890625 156.621094 325.410156 185.910156 306.242188 C 188.609375 304.476562 194.84375 300.964844 194.84375 300.964844 C 194.84375 300.964844 178.257812 337.230469 214.773438 366.6875 C 213.957031 354.632812 218.558594 343.503906 227.164062 334.925781 C 231.839844 330.269531 240.265625 328.03125 240.265625 328.03125 C 240.265625 328.03125 237.953125 336.140625 237.582031 338.054688 C 232.707031 363.332031 253.929688 382.988281 249.394531 406.929688 C 248.542969 411.417969 247.324219 415.773438 245.628906 419.917969 L 247.65625 419.917969 C 258.417969 414.167969 268.40625 406.695312 275.25 396.4375 C 290.816406 373.101562 283.820312 343.128906 268.832031 321.363281 Z M 268.832031 321.363281 " fill-opacity="1" fill-rule="nonzero"/></g></svg>