<svg xmlns="http://www.w3.org/2000/svg" height="24" viewBox="0 -960 960 960" width="24"><path d="M472-160.538q-33 0-56.5-23.231T392-240q0-33 23.5-56.5T472-320l24-23q8-8 18.5-12.5T536-360q23 0 39.5 17t16.5 40v17q0 20 13 33t33 13q15 0 27-9t17-23l12-33q9-24 28.231-39.5t45.231-15.5q11-28 17.5-58t6.5-62q0-89-43.731-161.731T632-756.462V-720q0 33-23.5 56.5T552-640h-40v80q0 17-11.5 28.5T472-520h-40v68q0 22-15 37t-37 15q-14 0-25.5-6T336-423l-64-97h-40v40q0 31-20.282 53t-49.18 26q26 104 111.731 172.231T472-160.538ZM552-400q-17 0-28.5-11.5T512-440q0-17 11.5-28.5T552-480h40q17 0 28.5 11.5T632-440q0 17-11.5 28.5T592-400h-40Zm93-120q-20 0-31.5-15.5T608-570l15-44q4-12 14-19t22-7q20 0 31.5 15.5T696-590l-15 44q-4 12-14 19t-22 7ZM472.134-120q-74.673 0-140.41-28.339-65.737-28.34-114.365-76.922-48.627-48.582-76.993-114.257Q112-405.194 112-479.866q0-74.673 28.339-140.41 28.34-65.737 76.922-114.365 48.582-48.627 114.257-76.993Q397.194-840 471.866-840q74.673 0 140.41 28.339 65.737 28.34 114.365 76.922 48.627 48.582 76.993 114.257Q832-554.806 832-480.134q0 74.673-28.339 140.41-28.34 65.737-76.922 114.365-48.582 48.627-114.257 76.993Q546.806-120 472.134-120Z"/></svg>