<svg xmlns="http://www.w3.org/2000/svg" height="40" viewBox="0 -960 960 960" width="40"><path d="M479.918-127.833q-75.771 0-129.178-53.171-53.406-53.17-53.406-128.929 0-48.184 22.916-89.375 22.917-41.192 63.084-67.192v-270.001q0-40.069 28.137-68.117 28.137-28.049 68.333-28.049t68.446 28.049q28.25 28.048 28.25 68.117V-466.5q40.166 26 62.833 67.201Q662-358.099 662.5-310.5q0 76.034-53.405 129.35-53.406 53.317-129.177 53.317Zm.102-62.667q49.98 0 84.563-34.875 34.584-34.875 34.584-85.125 0-34.356-16.993-64.386-16.994-30.029-47.008-45.781l-21.999-13.166v-302.668q0-13.516-9.736-23.175-9.736-9.658-23.617-9.658t-23.514 9.581q-9.633 9.582-9.633 23.348v303.072l-22 12.666q-30.334 15.834-47.167 45.868-16.833 30.034-16.833 64.874 0 50.092 34.811 84.759Q430.289-190.5 480.02-190.5Zm-.02-120Z"/></svg>